<svg width="16" height="16" viewBox="0 0 16 16" fill="none" xmlns="http://www.w3.org/2000/svg">
<path fill-rule="evenodd" clip-rule="evenodd" d="M2.33325 12.6666C2.33325 11.0098 3.6764 9.66663 5.33325 9.66663H10.6666C12.3234 9.66663 13.6666 11.0098 13.6666 12.6666V14C13.6666 14.1841 13.5173 14.3333 13.3333 14.3333C13.1492 14.3333 12.9999 14.1841 12.9999 14V12.6666C12.9999 11.378 11.9553 10.3333 10.6666 10.3333H5.33325C4.04459 10.3333 2.99992 11.378 2.99992 12.6666V14C2.99992 14.1841 2.85068 14.3333 2.66659 14.3333C2.48249 14.3333 2.33325 14.1841 2.33325 14V12.6666Z" fill="#414141"/>
<path fill-rule="evenodd" clip-rule="evenodd" d="M5 4.66663C5 3.00977 6.34315 1.66663 8 1.66663C9.65685 1.66663 11 3.00977 11 4.66663C11 6.32348 9.65685 7.66663 8 7.66663C6.34315 7.66663 5 6.32348 5 4.66663ZM8 2.33329C6.71134 2.33329 5.66667 3.37796 5.66667 4.66663C5.66667 5.95529 6.71134 6.99996 8 6.99996C9.28866 6.99996 10.3333 5.95529 10.3333 4.66663C10.3333 3.37796 9.28866 2.33329 8 2.33329Z" fill="#414141"/>
</svg>
