<svg width="30" height="30" viewBox="0 0 30 30" fill="none" xmlns="http://www.w3.org/2000/svg">
<path d="M3.47253 23.0891C3.47253 17.3249 0.486694 13.3666 0.486694 10.5891C0.486694 7.8116 2.08336 1.97743 14.8609 1.97743C27.6384 1.97743 29.5134 9.82493 29.5134 12.8799C29.5142 27.1858 3.47253 33.2974 3.47253 23.0891Z" fill="#FCD5BA"/>
<path d="M13.0909 20.9341C12.9342 21.0908 12.7225 21.1783 12.5017 21.1783C12.2809 21.1783 12.0684 21.0908 11.9125 20.9341L6.91252 15.9341C6.58669 15.6083 6.58752 15.0808 6.91252 14.7558L8.09085 13.5775C8.41669 13.2516 8.94419 13.2516 9.26919 13.5775L12.5017 16.8091L20.7342 8.57746C21.06 8.25163 21.5875 8.25163 21.9125 8.57746L23.0908 9.75579C23.4167 10.0816 23.4167 10.6091 23.0908 10.9341L13.0909 20.9341Z" fill="#FF6633"/>
<path d="M8.78625 15.9339C8.46041 15.6081 8.46125 15.0806 8.78625 14.7556L9.61625 13.9256L9.26791 13.5772C8.94208 13.2514 8.41458 13.2514 8.08958 13.5772L6.91125 14.7556C6.58541 15.0814 6.58541 15.6089 6.91125 15.9339L11.9112 20.9339C12.0679 21.0906 12.2796 21.1781 12.5004 21.1781C12.7212 21.1781 12.9337 21.0906 13.0896 20.9339L13.4379 20.5856L8.78625 15.9339Z" fill="black" fill-opacity="0.1"/>
</svg>
