<svg width="24" height="24" viewBox="0 0 24 24" fill="none" xmlns="http://www.w3.org/2000/svg">
<path fill-rule="evenodd" clip-rule="evenodd" d="M11.3325 1.89792C11.3324 1.89801 11.3327 1.89782 11.3325 1.89792L3.33366 5.89736L3.33255 5.89792C2.82288 6.15117 2.50045 6.67105 2.50005 7.24015V16.7636C2.49608 17.3335 2.81541 17.8564 3.32416 18.1132C3.32445 18.1133 3.32387 18.113 3.32416 18.1132L11.3237 22.1129C11.7462 22.3244 12.2438 22.3244 12.6663 22.113L20.6664 18.1129L20.6675 18.1124C21.1773 17.8591 21.4997 17.3391 21.5 16.7699V7.24042C21.4997 6.67121 21.1773 6.15121 20.6675 5.89792L20.6664 5.89736L12.6675 1.89792C12.6674 1.89782 12.6677 1.89801 12.6675 1.89792C12.2474 1.68935 11.7527 1.68934 11.3325 1.89792ZM10.8875 1.00238C11.5883 0.654153 12.4118 0.654153 13.1125 1.00238L13.1137 1.00293L21.1125 5.00238C21.1127 5.00247 21.1124 5.0023 21.1125 5.00238C21.9618 5.42464 22.4995 6.29138 22.5 7.23988V16.7701C22.4995 17.7186 21.9624 18.5853 21.1132 19.0076C21.113 19.0077 21.1134 19.0075 21.1132 19.0076L13.1138 23.0073C13.1138 23.0073 13.1138 23.0073 13.1138 23.0073C12.4097 23.3596 11.5806 23.3597 10.8764 23.0074C10.8764 23.0073 10.8765 23.0074 10.8764 23.0074L2.87644 19.0074L2.87506 19.0067C2.02685 18.5793 1.49413 17.7082 1.50005 16.7585V7.24015C1.50055 6.29169 2.03772 5.42496 2.88695 5.00268C2.88715 5.00258 2.88675 5.00278 2.88695 5.00268L10.8864 1.00294L10.8875 1.00238Z" fill="#414141"/>
<path fill-rule="evenodd" clip-rule="evenodd" d="M1.87321 5.93617C1.9967 5.68918 2.29704 5.58907 2.54403 5.71256L12.0004 10.4408L21.4568 5.71256C21.7038 5.58907 22.0041 5.68918 22.1276 5.93617C22.2511 6.18316 22.151 6.4835 21.904 6.60699L12.224 11.447C12.0833 11.5174 11.9176 11.5174 11.7768 11.447L2.09682 6.60699C1.84983 6.4835 1.74971 6.18316 1.87321 5.93617Z" fill="#414141"/>
<path fill-rule="evenodd" clip-rule="evenodd" d="M12 10.5C12.2761 10.5 12.5 10.7239 12.5 11V22.76C12.5 23.0361 12.2761 23.26 12 23.26C11.7239 23.26 11.5 23.0361 11.5 22.76V11C11.5 10.7239 11.7239 10.5 12 10.5Z" fill="#414141"/>
<path fill-rule="evenodd" clip-rule="evenodd" d="M6.5529 3.2765C6.67639 3.02951 6.97673 2.9294 7.22372 3.0529L17.2237 8.0529C17.4707 8.17639 17.5708 8.47673 17.4473 8.72372C17.3238 8.97071 17.0235 9.07082 16.7765 8.94732L6.7765 3.94732C6.52951 3.82383 6.4294 3.52349 6.5529 3.2765Z" fill="#414141"/>
</svg>
