<svg width="64" height="44" viewBox="0 0 64 44" fill="none" xmlns="http://www.w3.org/2000/svg">
<path d="M44.991 14.2615H17.4741C16.8971 14.2615 16.428 14.7322 16.4783 15.2853C17.0814 21.8701 23.4566 27.0518 31.2316 27.0518C39.0066 27.0518 45.3819 21.8701 45.985 15.2853C46.0371 14.7322 45.568 14.2615 44.991 14.2615Z" fill="#FF6633"/>
<path d="M26.2653 4.40841C25.9581 4.40841 25.6529 4.27596 25.4537 4.0218C24.4486 2.75101 22.5388 1.95989 20.4708 1.95989C18.4028 1.95989 16.493 2.74922 15.4879 4.0218C15.1472 4.45316 14.5069 4.53549 14.0602 4.20795C13.6116 3.88041 13.526 3.2647 13.8666 2.83513C15.2701 1.05959 17.7383 0 20.4708 0C23.2033 0 25.6715 1.05959 27.0768 2.83513C27.4175 3.26648 27.33 3.88041 26.8833 4.20795C26.6971 4.34398 26.4812 4.40841 26.2653 4.40841Z" fill="#414141"/>
<path d="M47.7887 4.40841C47.4816 4.40841 47.1763 4.27596 46.9771 4.0218C45.972 2.75101 44.0622 1.95989 41.9942 1.95989C39.9262 1.95989 38.0164 2.74922 37.0113 4.0218C36.6707 4.45316 36.0303 4.53549 35.5836 4.20795C35.135 3.88041 35.0494 3.2647 35.39 2.83513C36.7935 1.05959 39.2617 0 41.9942 0C44.7267 0 47.1949 1.05959 48.6003 2.83513C48.9409 3.26648 48.8534 3.88041 48.4067 4.20795C48.2205 4.34398 48.0046 4.40841 47.7887 4.40841Z" fill="#414141"/>
<path d="M2.85197 30.0031L2.45178 31.0216C2.41641 31.1057 2.28797 31.1397 2.16885 31.0985C1.89708 31.0198 1.61601 30.8784 1.32192 30.6707C1.02968 30.4667 0.798866 30.2501 0.627619 30.0228C0.368886 29.6774 0.188332 29.3015 0.087817 28.9006C-0.00897503 28.4961 -0.0238661 28.1059 0.0338368 27.7229C0.0952625 27.3434 0.236728 26.9765 0.456371 26.6257C0.677876 26.2749 0.962668 25.976 1.32005 25.729C1.67558 25.482 2.06089 25.3137 2.47597 25.2224C2.89106 25.1311 3.29871 25.1168 3.69332 25.1813C4.09352 25.2457 4.47324 25.3835 4.83807 25.6001C5.20663 25.8149 5.5212 26.0977 5.77993 26.4431C5.9456 26.6651 6.0852 26.9461 6.19316 27.2808C6.30484 27.6155 6.36068 27.9287 6.35882 28.2222C6.36068 28.3404 6.2732 28.4298 6.17641 28.4334L5.04841 28.4639C4.94045 28.4639 4.8511 28.3672 4.8511 28.2294C4.85482 28.0629 4.83249 27.8947 4.77851 27.7193C4.72453 27.5439 4.65566 27.3989 4.57003 27.2843C4.29269 26.9156 3.92413 26.6919 3.46251 26.6203C3.00461 26.5469 2.58766 26.6436 2.20421 26.9085C1.82449 27.1716 1.5974 27.5224 1.52667 27.9645C1.45966 28.403 1.5639 28.8111 1.84124 29.1798C1.92687 29.2943 2.04413 29.4017 2.19677 29.502C2.35126 29.604 2.50203 29.681 2.65653 29.7293C2.8073 29.7758 2.89106 29.8957 2.85197 30.0031Z" fill="#414141"/>
<path d="M7.35454 28.8361C7.44761 28.7377 7.56674 28.7341 7.66726 28.8236L10.5636 31.3831C10.6659 31.4726 10.6697 31.5872 10.5766 31.6838L9.92512 32.364C9.82646 32.4678 9.72037 32.4713 9.61241 32.3765L7.65795 30.6493L6.97296 31.3652L8.45648 32.6772C8.56817 32.7756 8.57934 32.8938 8.47882 32.9976L7.94088 33.5596C7.84781 33.658 7.7231 33.6562 7.61328 33.5596L6.12975 32.2476L5.42615 32.985L7.3806 34.7122C7.51835 34.834 7.52952 34.9915 7.41225 35.1114L6.80171 35.7504C6.71051 35.8452 6.58952 35.847 6.489 35.7575L3.53312 33.1479C3.43074 33.0584 3.4233 32.9474 3.51637 32.849L7.35454 28.8361Z" fill="#414141"/>
<path d="M13.6204 37.2574C13.6129 37.542 13.5292 37.8087 13.3672 38.0575C13.0601 38.5318 12.6618 38.8039 12.1722 38.8755C11.6864 38.9488 11.1559 38.8164 10.5845 38.4727L8.57232 37.2664C8.47925 37.2109 8.46249 37.1393 8.51834 37.0534L11.5822 32.3282C11.638 32.2422 11.7125 32.2261 11.8037 32.2816L13.6669 33.3985C14.2123 33.726 14.5529 34.1055 14.6907 34.5386C14.8284 34.9718 14.7503 35.4175 14.4562 35.8721C14.2198 36.2372 13.8065 36.477 13.3914 36.4896C13.5515 36.7187 13.6278 36.9728 13.6204 37.2574ZM11.2862 37.3559C11.6157 37.5545 11.9545 37.4812 12.1555 37.1715C12.3528 36.8672 12.2653 36.554 11.934 36.3571L11.0889 35.8506L10.4411 36.8493L11.2862 37.3559ZM12.2374 34.0822L11.6901 34.9252L12.3882 35.3441C12.6692 35.5123 12.9484 35.4532 13.116 35.1937C13.2835 34.9342 13.2146 34.6693 12.9335 34.501L12.2374 34.0822Z" fill="#414141"/>
<path d="M16.4654 35.1866C16.5176 35.0631 16.6255 35.0184 16.7539 35.0685L20.4041 36.4771C20.5326 36.5272 20.5791 36.6311 20.527 36.7546L20.1696 37.6119C20.1156 37.7425 20.017 37.7819 19.8811 37.73L17.4166 36.7796L17.0406 37.6817L18.9113 38.403C19.0509 38.4567 19.1049 38.5641 19.0509 38.6948L18.7549 39.4035C18.7028 39.527 18.5874 39.5682 18.4478 39.5145L16.5771 38.7932L16.19 39.7221L18.6544 40.6725C18.8294 40.7406 18.8964 40.882 18.8313 41.0359L18.4943 41.8413C18.4441 41.9612 18.3324 42.0042 18.204 41.9541L14.4793 40.5168C14.3509 40.4667 14.3025 40.3665 14.3546 40.243L16.4654 35.1866Z" fill="#414141"/>
<path d="M23.9766 37.3449C24.6132 37.4792 25.0879 37.7691 25.4006 38.2184C25.7133 38.6641 25.8045 39.1885 25.6649 39.7935C25.529 40.3913 25.2182 40.828 24.7398 41.1054C24.2614 41.3793 23.7067 41.4509 23.0683 41.3166L22.3535 41.1663L21.9961 42.7288C21.9663 42.8577 21.8677 42.9203 21.7244 42.8899L20.6783 42.6698C20.5442 42.6411 20.4847 42.5463 20.5126 42.4174L21.7281 37.0961C21.756 36.9744 21.8621 36.9028 21.9887 36.9297L22.5154 37.0407L23.0459 37.1534L23.9766 37.3449ZM23.3028 40.01C23.5113 40.0548 23.7012 40.0244 23.8668 39.9241C24.0362 39.8239 24.1423 39.6735 24.1888 39.4731C24.2354 39.2726 24.2037 39.0936 24.0939 38.9343C23.9897 38.7715 23.8296 38.6676 23.6211 38.6247L22.9678 38.4869L22.6513 39.874L23.3028 40.01Z" fill="#414141"/>
<path d="M31.2765 38.1309C31.4068 38.1381 31.4887 38.2311 31.4812 38.3546L31.1685 43.7994C31.1611 43.9318 31.0773 44.0088 30.9396 43.9999L29.8711 43.9426C29.7241 43.9354 29.6459 43.8495 29.6534 43.7171L29.7464 42.0954L29.1247 42.0632L28.1363 43.6705C28.0488 43.8065 27.993 43.8441 27.872 43.837L26.623 43.7708C26.489 43.7636 26.422 43.6311 26.4946 43.5184L27.6728 41.6677C27.0958 41.2954 26.7831 40.6707 26.8259 39.9351C26.8613 39.3212 27.0902 38.8379 27.5165 38.4889C27.9427 38.1363 28.4844 37.9806 29.1359 38.0146L31.0029 38.113L31.2765 38.1309ZM29.819 40.839L29.9028 39.3767L29.1229 39.3355C28.9051 39.3248 28.7227 39.382 28.5775 39.5073C28.4323 39.6326 28.3522 39.7973 28.3392 40.0067C28.328 40.2161 28.3876 40.3951 28.5179 40.5508C28.6519 40.7029 28.8269 40.7853 29.0391 40.796L29.819 40.839Z" fill="#414141"/>
<path d="M37.8849 37.5528C37.9891 37.5402 38.0487 37.5868 38.0617 37.6906L38.7504 43.2177C38.7635 43.3215 38.7151 43.3788 38.6127 43.3913L37.4382 43.5273C37.3339 43.5398 37.2744 43.4933 37.2613 43.3895L36.9877 41.1933L34.7168 41.4547L34.9904 43.6508C35.0035 43.7546 34.9551 43.8119 34.8527 43.8244L33.6819 43.9587C33.5739 43.9712 33.5144 43.9247 33.5013 43.8209L32.8126 38.2938C32.7996 38.19 32.848 38.1327 32.9559 38.1202L34.1268 37.9859C34.231 37.9734 34.2906 38.0199 34.3036 38.1237L34.5549 40.1409L36.8258 39.8796L36.5745 37.8624C36.5615 37.7586 36.6098 37.7013 36.7122 37.6888L37.8849 37.5528Z" fill="#414141"/>
<path d="M39.7982 38.9775C39.8317 38.564 39.9396 38.1864 40.1183 37.8463C40.3008 37.5045 40.552 37.1966 40.8741 36.9281C41.1942 36.6561 41.5609 36.4556 41.9779 36.3232C42.3948 36.1907 42.8136 36.1424 43.2362 36.1782C43.6606 36.2086 44.0533 36.3124 44.407 36.4842C44.7644 36.6543 45.0864 36.8959 45.3656 37.2091C45.6485 37.517 45.857 37.8696 45.9947 38.2705C46.1771 38.8021 46.2107 39.3337 46.0971 39.8599C45.9836 40.3879 45.7434 40.8533 45.3656 41.2578C44.9933 41.6605 44.528 41.9469 43.9714 42.1241C43.5545 42.2565 43.1356 42.3048 42.7112 42.2744C42.285 42.2404 41.8922 42.1366 41.5349 41.9666C41.1812 41.7947 40.861 41.5549 40.58 41.2488C40.3026 40.9392 40.0923 40.5866 39.9564 40.1892C39.8168 39.7883 39.7665 39.3856 39.7982 38.9775ZM42.218 40.66C42.6256 40.8568 43.0519 40.8819 43.4968 40.7405C43.9379 40.6009 44.2599 40.336 44.4665 39.9458C44.6713 39.5538 44.7048 39.1511 44.5577 38.7269C44.4107 38.2991 44.1333 37.9895 43.7257 37.7926C43.3181 37.5957 42.8937 37.5653 42.4544 37.7049C42.0132 37.8445 41.6875 38.113 41.4827 38.505C41.278 38.897 41.2463 39.305 41.3934 39.731C41.5386 40.157 41.8122 40.4631 42.218 40.66Z" fill="#414141"/>
<path d="M49.9478 32.7738C50.0483 32.7183 50.173 32.7559 50.2382 32.8632L53.0675 37.5813C53.1289 37.6815 53.0954 37.8122 52.9893 37.8695L52.0512 38.3885C51.9469 38.4476 51.8185 38.41 51.7571 38.3098L50.8022 36.7186C50.6849 37.1034 50.3982 37.4703 49.9943 37.6959C49.3708 38.0413 48.7491 38.1308 48.1311 37.9679C47.5112 37.8015 47.0105 37.4023 46.6308 36.7687L45.7727 35.3368C45.7113 35.2366 45.7392 35.1041 45.8379 35.0504L46.7685 34.535C46.884 34.4705 47.0198 34.5028 47.0831 34.6101L47.9394 36.0384C48.267 36.5844 48.7975 36.7222 49.367 36.4072C49.6537 36.2479 49.8287 36.0438 49.905 35.7932C49.9813 35.5427 49.9422 35.2849 49.7858 35.0236L48.9259 33.5881C48.8645 33.4879 48.8961 33.3537 48.9985 33.2982L49.9478 32.7738Z" fill="#414141"/>
<path d="M59.2314 32.6002C59.3747 32.6342 59.4436 32.7631 59.3356 32.8562L58.3007 33.7457C58.2356 33.8012 58.1574 33.8263 58.0736 33.8155L55.3876 33.1461L54.7455 33.6974L56.2309 35.2957C56.3034 35.3745 56.2997 35.4479 56.2215 35.5141L55.3337 36.2784C55.2518 36.3482 55.1754 36.3446 55.1029 36.2658L51.2498 32.1187C51.1809 32.0436 51.1846 31.9702 51.2647 31.9004L52.1526 31.1361C52.2307 31.0699 52.3071 31.0735 52.3778 31.1486L53.7924 32.6718L54.295 32.2405L54.0586 29.6989C54.0437 29.5449 54.0921 29.4823 54.2019 29.3874L55.2276 28.5068C55.343 28.4084 55.4695 28.4835 55.4826 28.6428L55.7599 31.7482L59.2314 32.6002Z" fill="#414141"/>
<path d="M63.8453 26.6721C63.9886 26.7062 64.0463 26.8082 63.9533 26.937L63.2701 27.8713C63.2031 27.9626 63.0747 28.0002 62.9518 27.9716L62.1366 27.7443L60.9173 29.4106L61.4143 30.0657C61.4907 30.157 61.4962 30.2894 61.4218 30.3897L60.7405 31.3204C60.6512 31.4421 60.5339 31.4367 60.4446 31.3114L57.0959 26.4216C57.0215 26.307 57.0252 26.1764 57.0922 26.0851L57.6004 25.3906C57.6674 25.2993 57.8014 25.2564 57.9261 25.2868L63.8453 26.6721ZM60.13 28.3761L60.8559 27.3827L58.9778 26.8547L60.13 28.3761Z" fill="#414141"/>
</svg>
