<svg width="23" height="20" viewBox="0 0 23 20" fill="none" xmlns="http://www.w3.org/2000/svg">
<path fill-rule="evenodd" clip-rule="evenodd" d="M12.2046 2.25632C13.3299 1.13054 14.8564 0.498047 16.4482 0.498047C18.0399 0.498047 19.5664 1.13051 20.6916 2.25624C21.8174 3.38152 22.45 4.90816 22.45 6.49987C22.45 8.09162 21.8175 9.61813 20.6917 10.7434C20.6917 10.7435 20.6917 10.7434 20.6917 10.7434L11.8517 19.5834C11.6565 19.7787 11.3399 19.7787 11.1446 19.5834L2.30461 10.7434C-0.0390375 8.39978 -0.0390373 4.59997 2.30461 2.25632C4.64826 -0.0873307 8.44807 -0.0873308 10.7917 2.25632L11.4982 2.96277L12.2046 2.25632C12.2046 2.25635 12.2046 2.25629 12.2046 2.25632ZM16.4482 1.49805C15.1217 1.49805 13.8496 2.02515 12.9118 2.96334L11.8517 4.02343C11.758 4.11719 11.6308 4.16987 11.4982 4.16987C11.3656 4.16987 11.2384 4.11719 11.1446 4.02343L10.0846 2.96343C8.13149 1.0103 4.96484 1.0103 3.01172 2.96343C1.05859 4.91655 1.05859 8.08319 3.01172 10.0363L11.4982 18.5228L19.9846 10.0363C20.9228 9.09857 21.45 7.82636 21.45 6.49987C21.45 5.17338 20.9229 3.90126 19.9847 2.96351C19.0469 2.02532 17.7747 1.49805 16.4482 1.49805Z" fill="#414141"/>
</svg>
