<svg width="152" height="32" viewBox="0 0 152 32" fill="none" xmlns="http://www.w3.org/2000/svg">
<path d="M35.6679 16.8188H4.28525C3.62774 16.8188 3.09082 17.3762 3.15111 18.0341C3.84021 25.8487 11.1102 31.9997 19.9766 31.9997C28.843 31.9997 36.113 25.8515 36.8021 18.0341C36.8595 17.3762 36.3254 16.8188 35.6679 16.8188Z" fill="#FF6633"/>
<path fill-rule="evenodd" clip-rule="evenodd" d="M0.225147 3.33137C1.7887 1.27854 4.60645 0 7.711 0C10.8155 0 13.6333 1.27854 15.1969 3.33137C15.5659 3.81589 15.4714 4.50716 14.9858 4.87537C14.5001 5.24357 13.8073 5.14928 13.4383 4.66476C12.3661 3.25707 10.2569 2.20377 7.711 2.20377C5.16509 2.20377 3.05591 3.25707 1.98374 4.66476C1.6147 5.14928 0.921857 5.24357 0.436236 4.87537C-0.0493858 4.50716 -0.143894 3.81589 0.225147 3.33137Z" fill="#414141"/>
<path fill-rule="evenodd" clip-rule="evenodd" d="M24.7681 3.33137C26.3317 1.27854 29.1494 0 32.254 0C35.3562 0 38.1731 1.27884 39.7391 3.33045C40.1087 3.81458 40.0149 4.50596 39.5297 4.87467C39.0444 5.24338 38.3515 5.14981 37.9819 4.66568C36.9065 3.25676 34.7965 2.20377 32.254 2.20377C29.7081 2.20377 27.5989 3.25707 26.5267 4.66476C26.1577 5.14928 25.4648 5.24357 24.9792 4.87537C24.4936 4.50716 24.3991 3.81589 24.7681 3.33137Z" fill="#414141"/>
<path d="M57.9535 18.2183C57.7483 18.3697 57.5034 18.4882 57.2255 18.5869C56.9475 18.6857 56.696 18.7317 56.4644 18.7317C55.7165 18.7317 55.0746 18.475 54.5517 17.9682C54.0289 17.4548 53.7708 16.8296 53.7708 16.0924C53.7708 15.3486 54.0289 14.7233 54.5517 14.2099C55.0746 13.69 55.7165 13.4333 56.4644 13.4333C56.696 13.4333 56.9541 13.4859 57.2387 13.5846C57.5233 13.6834 57.7682 13.815 57.9866 13.9796C58.1719 14.1112 58.3837 14.0915 58.4829 13.9532L59.4889 12.4855C59.5749 12.3604 59.5352 12.1629 59.3764 12.051C58.9859 11.768 58.516 11.5377 57.9667 11.3599C57.4174 11.1756 56.9144 11.0835 56.4644 11.0835C55.7629 11.0835 55.0944 11.2151 54.4657 11.4784C53.837 11.7351 53.3009 12.0905 52.8442 12.5381C52.3942 12.9791 52.0368 13.5122 51.7721 14.1309C51.5074 14.7497 51.375 15.4013 51.375 16.0924C51.375 16.7835 51.5074 17.4351 51.7721 18.0538C52.0368 18.6725 52.3942 19.2056 52.8442 19.6466C53.3009 20.0876 53.837 20.4431 54.4657 20.7063C55.0944 20.963 55.7629 21.0947 56.4644 21.0947C56.9277 21.0947 57.4306 21.0091 57.9733 20.8314C58.5227 20.6537 58.9727 20.4299 59.3301 20.16C59.4955 20.0481 59.5683 19.8507 59.4889 19.7256L58.5028 18.2381C58.3969 18.0867 58.1587 18.0801 57.9535 18.2183Z" fill="#414141"/>
<path d="M60.7265 20.5418C60.7265 20.759 60.8589 20.884 61.0773 20.884H67.4307C67.6491 20.884 67.7881 20.7524 67.7881 20.5418V19.1201C67.7881 18.8502 67.6028 18.6725 67.305 18.6725H63.1024V17.0336H66.2924C66.5307 17.0336 66.6763 16.902 66.6763 16.6848V15.4342C66.6763 15.2038 66.5307 15.0722 66.2924 15.0722H63.1024V13.4793H67.305C67.5366 13.4793 67.6558 13.3609 67.6558 13.1305V11.6166C67.6558 11.3994 67.5234 11.2678 67.305 11.2678H61.0773C60.8589 11.2678 60.7265 11.3994 60.7265 11.6166V20.5418Z" fill="#414141"/>
<path d="M75.174 15.7896C75.7233 15.4276 76.0675 14.7497 76.0675 14.0454C76.0675 13.17 75.7829 12.4855 75.2204 11.9984C74.6578 11.5113 73.8702 11.2678 72.851 11.2678H69.3765C69.2044 11.2678 69.1184 11.3534 69.1184 11.5179V20.6339C69.1184 20.7985 69.2044 20.884 69.3765 20.884H73.129C74.1945 20.884 75.0218 20.6273 75.6108 20.1205C76.2065 19.6137 76.5043 18.9029 76.5043 17.988C76.5043 17.5075 76.3852 17.0665 76.1469 16.665C75.9087 16.2635 75.5844 15.9739 75.174 15.7896ZM72.8246 13.4069C73.3474 13.4069 73.6717 13.7163 73.6717 14.2165C73.6717 14.7167 73.3474 15.0327 72.8246 15.0327H71.5208V13.4069H72.8246ZM71.5208 18.7449V16.8164H73.0959C73.7114 16.8164 74.1019 17.1784 74.1019 17.7642C74.1019 18.3632 73.7114 18.7449 73.0959 18.7449H71.5208Z" fill="#414141"/>
<path d="M77.6956 20.5418C77.6956 20.759 77.8279 20.884 78.0463 20.884H84.3998C84.6182 20.884 84.7572 20.7524 84.7572 20.5418V19.1201C84.7572 18.8502 84.5719 18.6725 84.2741 18.6725H80.0715V17.0336H83.2615C83.4997 17.0336 83.6453 16.902 83.6453 16.6848V15.4342C83.6453 15.2038 83.4997 15.0722 83.2615 15.0722H80.0715V13.4793H84.2741C84.5057 13.4793 84.6248 13.3609 84.6248 13.1305V11.6166C84.6248 11.3994 84.4925 11.2678 84.2741 11.2678H78.0463C77.8279 11.2678 77.6956 11.3994 77.6956 11.6166V20.5418Z" fill="#414141"/>
<path d="M88.1457 11.2678H87.2853H86.4316C86.2264 11.2678 86.0874 11.4192 86.0874 11.6232V20.5418C86.0874 20.759 86.2132 20.8906 86.4316 20.8906H88.1258C88.3575 20.8906 88.4898 20.759 88.4898 20.5418V17.9222H89.648C90.6805 17.9222 91.5144 17.6194 92.1563 17.0204C92.7983 16.4149 93.1226 15.6119 93.1226 14.6114C93.1226 13.5978 92.7983 12.7882 92.1563 12.1827C91.5144 11.5706 90.6805 11.2678 89.648 11.2678H88.1457ZM88.4898 15.7567V13.4333H89.5488C89.8863 13.4333 90.1709 13.5452 90.3893 13.7689C90.6143 13.9861 90.7268 14.2626 90.7268 14.5983C90.7268 14.9339 90.6143 15.2104 90.3893 15.4276C90.1709 15.6448 89.8863 15.7567 89.5488 15.7567H88.4898Z" fill="#414141"/>
<path d="M100.389 11.2678H97.431C96.3986 11.2678 95.5581 11.5706 94.9161 12.1827C94.2741 12.7882 93.9565 13.5978 93.9565 14.6048C93.9565 15.8093 94.5058 16.8032 95.4522 17.3627L93.7579 20.4891C93.652 20.68 93.7712 20.8906 93.9829 20.8906H95.9618C96.1537 20.8906 96.2398 20.8248 96.3655 20.5944L97.7818 17.8827H98.7679V20.5418C98.7679 20.759 98.9003 20.8906 99.1319 20.8906H100.826C101.045 20.8906 101.17 20.759 101.17 20.5418V11.6166C101.17 11.4126 101.031 11.2678 100.826 11.2678H100.389ZM97.5303 15.8225C97.1928 15.8225 96.9082 15.704 96.6832 15.4671C96.4648 15.2236 96.3523 14.9339 96.3523 14.5917C96.3523 14.2494 96.4648 13.973 96.6832 13.7558C96.9016 13.5386 97.1862 13.4267 97.5303 13.4267H98.7679V15.8225H97.5303Z" fill="#414141"/>
<path d="M109.039 11.2678C108.874 11.2678 108.788 11.3534 108.788 11.5245V14.8484H105.168V11.5245C105.168 11.3534 105.082 11.2678 104.916 11.2678H103.05C102.878 11.2678 102.792 11.3534 102.792 11.5245V20.6339C102.792 20.8051 102.878 20.8906 103.05 20.8906H104.916C105.082 20.8906 105.168 20.8051 105.168 20.6339V17.0138H108.788V20.6339C108.788 20.8051 108.874 20.8906 109.039 20.8906H110.912C111.078 20.8906 111.164 20.8051 111.164 20.6339V11.5245C111.164 11.3534 111.078 11.2678 110.912 11.2678H109.039Z" fill="#414141"/>
<path d="M112.342 16.099C112.342 16.7835 112.474 17.4351 112.732 18.0538C112.997 18.6659 113.354 19.1991 113.798 19.6401C114.248 20.081 114.784 20.4365 115.406 20.6998C116.028 20.9564 116.683 21.0881 117.378 21.0881C118.305 21.0881 119.152 20.8709 119.92 20.4299C120.694 19.9889 121.296 19.3834 121.74 18.6198C122.183 17.8563 122.408 17.0138 122.408 16.099C122.408 15.4078 122.276 14.7562 122.011 14.1375C121.753 13.5122 121.396 12.9791 120.945 12.5381C120.502 12.0971 119.966 11.7417 119.344 11.485C118.728 11.2217 118.073 11.0901 117.378 11.0901C116.683 11.0901 116.028 11.2217 115.406 11.485C114.784 11.7417 114.248 12.0971 113.798 12.5381C113.354 12.9791 112.997 13.5122 112.732 14.1375C112.474 14.7562 112.342 15.4078 112.342 16.099ZM114.738 16.099C114.738 15.3618 114.996 14.7431 115.505 14.2363C116.015 13.7294 116.644 13.4728 117.378 13.4728C118.113 13.4728 118.735 13.7294 119.245 14.2363C119.754 14.7431 120.012 15.3618 120.012 16.099C120.012 16.8296 119.754 17.4417 119.245 17.9485C118.735 18.4553 118.113 18.7054 117.378 18.7054C116.637 18.7054 116.008 18.4553 115.499 17.9485C114.989 17.4417 114.738 16.8296 114.738 16.099Z" fill="#414141"/>
<path d="M129.304 11.2612C129.119 11.2612 128.967 11.4258 128.967 11.6166V14.3284C128.967 14.8221 128.808 15.217 128.497 15.5132C128.186 15.8093 127.775 15.9607 127.253 15.9607C126.214 15.9607 125.598 15.3486 125.598 14.3152V11.6166C125.598 11.4126 125.439 11.2612 125.227 11.2612H123.527C123.348 11.2612 123.202 11.4258 123.202 11.6166V14.3218C123.202 15.5197 123.56 16.4807 124.274 17.2047C124.989 17.9222 125.916 18.2842 127.054 18.2842C127.795 18.2842 128.49 17.988 128.967 17.5338V20.5418C128.967 20.7327 129.112 20.884 129.304 20.884H131.018C131.21 20.884 131.363 20.7261 131.363 20.5352V11.6166C131.363 11.4126 131.224 11.2612 131.038 11.2612H129.304Z" fill="#414141"/>
<path d="M138.715 15.8028L141.793 11.7219C141.952 11.5113 141.885 11.2875 141.641 11.2875H139.463C139.232 11.2875 139.106 11.3139 138.954 11.5179L136.445 14.8681H135.38V11.5245C135.38 11.3599 135.294 11.2744 135.128 11.2744H133.242C133.07 11.2744 132.984 11.3599 132.984 11.5245V20.6273C132.984 20.7985 133.07 20.884 133.242 20.884H135.128C135.294 20.884 135.38 20.7985 135.38 20.6273V17.1192H136.743L139.179 20.7524C139.265 20.8511 139.384 20.9038 139.523 20.9038H141.72C141.952 20.9038 142.011 20.6734 141.879 20.4825L138.715 15.8028Z" fill="#414141"/>
<path d="M148.193 11.5837C148.12 11.3928 147.941 11.2612 147.756 11.2612H146.359C146.174 11.2612 145.995 11.3797 145.909 11.5837L142.375 20.5023C142.289 20.7327 142.388 20.8906 142.633 20.8906H144.506C144.711 20.8906 144.883 20.759 144.936 20.5747L145.367 19.3175H148.722L149.159 20.5813C149.232 20.7656 149.397 20.8972 149.582 20.8972H151.462C151.72 20.8972 151.806 20.7261 151.72 20.5089L148.193 11.5837ZM147.041 14.414L148.04 17.3298H146.042L147.041 14.414Z" fill="#414141"/>
</svg>
