<svg width="49" height="40" viewBox="0 0 49 40" fill="none" xmlns="http://www.w3.org/2000/svg">
<path d="M5.36638 21.1575H43.6862C44.4897 21.1575 45.143 21.843 45.073 22.6484C44.2331 32.2381 35.355 39.7841 24.5276 39.7841C13.7002 39.7841 4.82203 32.2381 3.98217 22.6484C3.90959 21.843 4.56281 21.1575 5.36638 21.1575Z" fill="#FF6633"/>
<path d="M31.4435 6.80837C31.8712 6.80837 32.2963 6.61548 32.5737 6.24535C33.9734 4.39467 36.633 3.24256 39.5128 3.24256C42.3927 3.24256 45.0523 4.39207 46.452 6.24535C46.9264 6.87353 47.8181 6.99344 48.4402 6.51643C49.0649 6.03943 49.1842 5.14276 48.7098 4.51718C46.7553 1.93145 43.3181 0.388351 39.5128 0.388351C35.7076 0.388351 32.2704 1.93145 30.3133 4.51718C29.8389 5.14537 29.9608 6.03943 30.5829 6.51643C30.8421 6.71453 31.1428 6.80837 31.4435 6.80837Z" fill="#414141"/>
<path d="M1.47277 6.80837C1.90047 6.80837 2.32559 6.61548 2.60295 6.24535C4.00271 4.39467 6.66226 3.24256 9.54214 3.24256C12.422 3.24256 15.0816 4.39207 16.4813 6.24535C16.9557 6.87353 17.8474 6.99344 18.4695 6.51643C19.0942 6.03943 19.2135 5.14276 18.7391 4.51718C16.7846 1.93145 13.3474 0.388351 9.54214 0.388351C5.73686 0.388351 2.29967 1.93145 0.342592 4.51718C-0.131772 5.14537 -0.00993883 6.03943 0.612178 6.51643C0.871393 6.71453 1.17208 6.80837 1.47277 6.80837Z" fill="#414141"/>
</svg>
