<svg width="845" height="97" viewBox="0 0 845 97" fill="none" xmlns="http://www.w3.org/2000/svg">
<path d="M40 28.5L40 69.5L0 28.5L40 28.5Z" fill="#E5FFDE"/>
<rect x="40" y="0.5" width="805" height="96" rx="16" fill="#E5FFDE"/>
<path d="M88.592 56.74C86.304 56.74 84.504 56.188 83.192 55.084C81.896 53.98 81.208 52.364 81.128 50.236C81.112 49.804 81.104 49.1 81.104 48.124C81.104 47.132 81.112 46.412 81.128 45.964C81.208 43.884 81.904 42.284 83.216 41.164C84.544 40.028 86.336 39.46 88.592 39.46C90.016 39.46 91.288 39.692 92.408 40.156C93.544 40.62 94.44 41.292 95.096 42.172C95.752 43.052 96.096 44.092 96.128 45.292C96.128 45.436 96.072 45.556 95.96 45.652C95.864 45.748 95.744 45.796 95.6 45.796H92.192C91.968 45.796 91.8 45.756 91.688 45.676C91.592 45.58 91.504 45.412 91.424 45.172C91.2 44.388 90.856 43.844 90.392 43.54C89.944 43.22 89.344 43.06 88.592 43.06C86.784 43.06 85.848 44.068 85.784 46.084C85.768 46.516 85.76 47.18 85.76 48.076C85.76 48.972 85.768 49.652 85.784 50.116C85.848 52.132 86.784 53.14 88.592 53.14C89.328 53.14 89.928 52.98 90.392 52.66C90.872 52.34 91.216 51.796 91.424 51.028C91.488 50.788 91.576 50.628 91.688 50.548C91.8 50.452 91.968 50.404 92.192 50.404H95.6C95.744 50.404 95.864 50.452 95.96 50.548C96.072 50.644 96.128 50.764 96.128 50.908C96.096 52.108 95.752 53.148 95.096 54.028C94.44 54.908 93.544 55.58 92.408 56.044C91.288 56.508 90.016 56.74 88.592 56.74ZM98.9133 56.5C98.7533 56.5 98.6093 56.444 98.4813 56.332C98.3693 56.204 98.3133 56.06 98.3133 55.9V44.62C98.3133 44.444 98.3693 44.3 98.4813 44.188C98.6093 44.076 98.7533 44.02 98.9133 44.02H110.073C110.249 44.02 110.393 44.076 110.505 44.188C110.617 44.3 110.673 44.444 110.673 44.62V55.9C110.673 56.06 110.617 56.204 110.505 56.332C110.393 56.444 110.249 56.5 110.073 56.5H107.073C106.913 56.5 106.769 56.444 106.641 56.332C106.529 56.204 106.473 56.06 106.473 55.9V47.284H102.537V55.9C102.537 56.076 102.473 56.22 102.345 56.332C102.233 56.444 102.089 56.5 101.913 56.5H98.9133ZM117.292 56.74C116.444 56.74 115.668 56.58 114.964 56.26C114.276 55.924 113.732 55.468 113.332 54.892C112.948 54.316 112.756 53.684 112.756 52.996C112.756 51.908 113.204 51.028 114.1 50.356C115.012 49.668 116.26 49.196 117.844 48.94L120.82 48.484V48.196C120.82 47.604 120.7 47.172 120.46 46.9C120.22 46.628 119.812 46.492 119.236 46.492C118.916 46.492 118.644 46.548 118.42 46.66C118.212 46.772 117.972 46.94 117.7 47.164C117.492 47.34 117.308 47.468 117.148 47.548C117.084 47.66 117.004 47.716 116.908 47.716H114.124C113.964 47.716 113.828 47.668 113.716 47.572C113.62 47.46 113.58 47.332 113.596 47.188C113.612 46.756 113.828 46.276 114.244 45.748C114.66 45.204 115.292 44.74 116.14 44.356C116.988 43.972 118.036 43.78 119.284 43.78C121.268 43.78 122.74 44.22 123.7 45.1C124.66 45.964 125.14 47.14 125.14 48.628V55.9C125.14 56.06 125.084 56.204 124.972 56.332C124.86 56.444 124.716 56.5 124.54 56.5H121.588C121.428 56.5 121.284 56.444 121.156 56.332C121.044 56.204 120.988 56.06 120.988 55.9V55.06C120.636 55.556 120.148 55.964 119.524 56.284C118.9 56.588 118.156 56.74 117.292 56.74ZM118.492 53.908C119.196 53.908 119.764 53.676 120.196 53.212C120.644 52.748 120.868 52.076 120.868 51.196V50.908L118.876 51.244C117.532 51.5 116.86 51.98 116.86 52.684C116.86 53.052 117.012 53.348 117.316 53.572C117.636 53.796 118.028 53.908 118.492 53.908ZM133.559 56.74C131.735 56.74 130.255 56.26 129.119 55.3C127.999 54.324 127.399 52.972 127.319 51.244L127.295 50.284L127.319 49.3C127.383 47.572 127.983 46.22 129.119 45.244C130.255 44.268 131.735 43.78 133.559 43.78C134.951 43.78 136.119 44.028 137.063 44.524C138.007 45.02 138.711 45.612 139.175 46.3C139.639 46.972 139.887 47.588 139.919 48.148C139.935 48.324 139.879 48.476 139.751 48.604C139.623 48.716 139.471 48.772 139.295 48.772H136.079C135.903 48.772 135.767 48.732 135.671 48.652C135.575 48.572 135.487 48.444 135.407 48.268C135.231 47.82 134.999 47.492 134.711 47.284C134.439 47.076 134.087 46.972 133.655 46.972C132.423 46.972 131.783 47.788 131.735 49.42L131.711 50.332L131.735 51.124C131.751 51.956 131.919 52.572 132.239 52.972C132.559 53.356 133.031 53.548 133.655 53.548C134.119 53.548 134.479 53.452 134.735 53.26C135.007 53.052 135.231 52.716 135.407 52.252C135.487 52.076 135.575 51.948 135.671 51.868C135.767 51.788 135.903 51.748 136.079 51.748H139.295C139.455 51.748 139.599 51.804 139.727 51.916C139.855 52.028 139.919 52.164 139.919 52.324C139.919 52.82 139.695 53.42 139.247 54.124C138.815 54.812 138.119 55.42 137.159 55.948C136.199 56.476 134.999 56.74 133.559 56.74ZM154.241 44.02C154.401 44.02 154.537 44.076 154.649 44.188C154.777 44.3 154.841 44.436 154.841 44.596V55.9C154.841 56.06 154.785 56.204 154.673 56.332C154.561 56.444 154.417 56.5 154.241 56.5H151.241C151.065 56.5 150.913 56.444 150.785 56.332C150.673 56.22 150.617 56.076 150.617 55.9V49.396L145.937 56.116C145.761 56.372 145.537 56.5 145.265 56.5H142.577C142.417 56.5 142.273 56.444 142.145 56.332C142.033 56.204 141.977 56.06 141.977 55.9V44.62C141.977 44.444 142.033 44.3 142.145 44.188C142.273 44.076 142.417 44.02 142.577 44.02H145.577C145.753 44.02 145.897 44.076 146.009 44.188C146.137 44.3 146.201 44.444 146.201 44.62V51.124L150.881 44.404C151.057 44.148 151.281 44.02 151.553 44.02H154.241ZM169.832 49.972C169.864 50.356 169.88 50.66 169.88 50.884C169.88 51.092 169.864 51.372 169.832 51.724C169.736 53.324 169.144 54.564 168.056 55.444C166.984 56.308 165.44 56.74 163.424 56.74C161.248 56.74 159.656 56.22 158.648 55.18C157.656 54.14 157.104 52.484 156.992 50.212L156.968 48.748L156.992 47.308C157.072 45.116 157.448 43.46 158.12 42.34C158.808 41.22 159.824 40.38 161.168 39.82C162.528 39.26 164.648 38.66 167.528 38.02C167.688 37.988 167.84 38.02 167.984 38.116C168.128 38.196 168.208 38.324 168.224 38.5L168.656 40.828C168.688 41.004 168.664 41.164 168.584 41.308C168.504 41.436 168.384 41.516 168.224 41.548C166.128 41.948 164.64 42.284 163.76 42.556C162.896 42.828 162.248 43.228 161.816 43.756C161.4 44.268 161.152 45.068 161.072 46.156C161.44 45.804 161.904 45.516 162.464 45.292C163.024 45.068 163.608 44.956 164.216 44.956C165.96 44.956 167.304 45.396 168.248 46.276C169.208 47.156 169.736 48.388 169.832 49.972ZM165.44 51.628C165.456 51.5 165.464 51.252 165.464 50.884C165.464 50.484 165.456 50.212 165.44 50.068C165.36 48.5 164.736 47.716 163.568 47.716C162.208 47.716 161.488 48.5 161.408 50.068L161.384 50.884L161.408 51.628C161.44 52.428 161.616 53.028 161.936 53.428C162.272 53.812 162.768 54.004 163.424 54.004C164.08 54.004 164.568 53.812 164.888 53.428C165.224 53.028 165.408 52.428 165.44 51.628ZM178.165 56.74C176.149 56.74 174.597 56.276 173.509 55.348C172.437 54.404 171.853 53.068 171.757 51.34C171.741 51.132 171.733 50.772 171.733 50.26C171.733 49.748 171.741 49.388 171.757 49.18C171.853 47.484 172.453 46.164 173.557 45.22C174.677 44.26 176.213 43.78 178.165 43.78C180.117 43.78 181.645 44.26 182.749 45.22C183.869 46.164 184.477 47.484 184.573 49.18C184.605 49.596 184.621 49.956 184.621 50.26C184.621 50.564 184.605 50.924 184.573 51.34C184.477 53.068 183.885 54.404 182.797 55.348C181.725 56.276 180.181 56.74 178.165 56.74ZM178.165 53.716C178.821 53.716 179.309 53.516 179.629 53.116C179.949 52.7 180.133 52.068 180.181 51.22C180.197 51.06 180.205 50.74 180.205 50.26C180.205 49.78 180.197 49.46 180.181 49.3C180.133 48.468 179.949 47.844 179.629 47.428C179.309 47.012 178.821 46.804 178.165 46.804C177.509 46.804 177.021 47.012 176.701 47.428C176.381 47.844 176.197 48.468 176.149 49.3L176.125 50.26L176.149 51.22C176.197 52.068 176.381 52.7 176.701 53.116C177.021 53.516 177.509 53.716 178.165 53.716ZM197.274 56.74C195.882 56.74 194.762 56.548 193.914 56.164C193.066 55.764 192.45 55.292 192.066 54.748C191.698 54.188 191.482 53.628 191.418 53.068V53.02C191.418 52.924 191.466 52.836 191.562 52.756C191.658 52.676 191.754 52.636 191.85 52.636H194.778C194.954 52.636 195.082 52.668 195.162 52.732C195.258 52.78 195.346 52.868 195.426 52.996C195.554 53.284 195.77 53.5 196.074 53.644C196.378 53.772 196.794 53.836 197.322 53.836C197.866 53.836 198.282 53.74 198.57 53.548C198.874 53.34 199.026 53.028 199.026 52.612C199.026 52.228 198.906 51.94 198.666 51.748C198.442 51.54 198.058 51.436 197.514 51.436H196.17C196.026 51.436 195.898 51.388 195.786 51.292C195.69 51.18 195.642 51.052 195.642 50.908V49.468C195.642 49.324 195.69 49.204 195.786 49.108C195.882 48.996 196.01 48.94 196.17 48.94H197.442C197.922 48.94 198.266 48.86 198.474 48.7C198.698 48.524 198.81 48.26 198.81 47.908C198.81 47.556 198.682 47.268 198.426 47.044C198.17 46.82 197.77 46.708 197.226 46.708C196.698 46.708 196.306 46.78 196.05 46.924C195.81 47.068 195.61 47.308 195.45 47.644C195.37 47.772 195.282 47.868 195.186 47.932C195.106 47.98 194.978 48.004 194.802 48.004H191.97C191.842 48.004 191.73 47.964 191.634 47.884C191.554 47.788 191.522 47.684 191.538 47.572C191.602 46.964 191.826 46.372 192.21 45.796C192.594 45.22 193.202 44.74 194.034 44.356C194.866 43.972 195.946 43.78 197.274 43.78C199.21 43.78 200.626 44.108 201.522 44.764C202.418 45.42 202.866 46.276 202.866 47.332C202.866 48.564 202.346 49.428 201.306 49.924C202.554 50.372 203.194 51.388 203.226 52.972C203.226 54.124 202.69 55.044 201.618 55.732C200.562 56.404 199.114 56.74 197.274 56.74ZM209.238 56.74C208.39 56.74 207.614 56.58 206.91 56.26C206.222 55.924 205.678 55.468 205.278 54.892C204.894 54.316 204.702 53.684 204.702 52.996C204.702 51.908 205.15 51.028 206.046 50.356C206.958 49.668 208.206 49.196 209.79 48.94L212.766 48.484V48.196C212.766 47.604 212.646 47.172 212.406 46.9C212.166 46.628 211.758 46.492 211.182 46.492C210.862 46.492 210.59 46.548 210.366 46.66C210.158 46.772 209.918 46.94 209.646 47.164C209.438 47.34 209.254 47.468 209.094 47.548C209.03 47.66 208.95 47.716 208.854 47.716H206.07C205.91 47.716 205.774 47.668 205.662 47.572C205.566 47.46 205.526 47.332 205.542 47.188C205.558 46.756 205.774 46.276 206.19 45.748C206.606 45.204 207.238 44.74 208.086 44.356C208.934 43.972 209.982 43.78 211.23 43.78C213.214 43.78 214.686 44.22 215.646 45.1C216.606 45.964 217.086 47.14 217.086 48.628V55.9C217.086 56.06 217.03 56.204 216.918 56.332C216.806 56.444 216.662 56.5 216.486 56.5H213.534C213.374 56.5 213.23 56.444 213.102 56.332C212.99 56.204 212.934 56.06 212.934 55.9V55.06C212.582 55.556 212.094 55.964 211.47 56.284C210.846 56.588 210.102 56.74 209.238 56.74ZM210.438 53.908C211.142 53.908 211.71 53.676 212.142 53.212C212.59 52.748 212.814 52.076 212.814 51.196V50.908L210.822 51.244C209.478 51.5 208.806 51.98 208.806 52.684C208.806 53.052 208.958 53.348 209.262 53.572C209.582 53.796 209.974 53.908 210.438 53.908ZM228.527 56.5C228.351 56.5 228.199 56.444 228.071 56.332C227.959 56.22 227.903 56.076 227.903 55.9V47.284H224.327C224.151 47.284 223.999 47.228 223.871 47.116C223.759 47.004 223.703 46.86 223.703 46.684V44.62C223.703 44.444 223.759 44.3 223.871 44.188C223.999 44.076 224.151 44.02 224.327 44.02H235.655C235.831 44.02 235.975 44.076 236.087 44.188C236.199 44.3 236.255 44.444 236.255 44.62V46.684C236.255 46.844 236.199 46.988 236.087 47.116C235.975 47.228 235.831 47.284 235.655 47.284H232.055V55.9C232.055 56.06 231.999 56.204 231.887 56.332C231.775 56.444 231.631 56.5 231.455 56.5H228.527ZM243.977 56.74C241.961 56.74 240.409 56.276 239.321 55.348C238.249 54.404 237.665 53.068 237.569 51.34C237.553 51.132 237.545 50.772 237.545 50.26C237.545 49.748 237.553 49.388 237.569 49.18C237.665 47.484 238.265 46.164 239.369 45.22C240.489 44.26 242.025 43.78 243.977 43.78C245.929 43.78 247.457 44.26 248.561 45.22C249.681 46.164 250.289 47.484 250.385 49.18C250.417 49.596 250.433 49.956 250.433 50.26C250.433 50.564 250.417 50.924 250.385 51.34C250.289 53.068 249.697 54.404 248.609 55.348C247.537 56.276 245.993 56.74 243.977 56.74ZM243.977 53.716C244.633 53.716 245.121 53.516 245.441 53.116C245.761 52.7 245.945 52.068 245.993 51.22C246.009 51.06 246.017 50.74 246.017 50.26C246.017 49.78 246.009 49.46 245.993 49.3C245.945 48.468 245.761 47.844 245.441 47.428C245.121 47.012 244.633 46.804 243.977 46.804C243.321 46.804 242.833 47.012 242.513 47.428C242.193 47.844 242.009 48.468 241.961 49.3L241.937 50.26L241.961 51.22C242.009 52.068 242.193 52.7 242.513 53.116C242.833 53.516 243.321 53.716 243.977 53.716ZM252.482 58.3C252.338 58.3 252.218 58.244 252.122 58.132C252.042 58.036 252.01 57.916 252.026 57.772L252.77 52.948C252.802 52.724 252.89 52.532 253.034 52.372C253.178 52.196 253.386 52.108 253.658 52.108H256.562C256.69 52.108 256.802 52.156 256.898 52.252C256.994 52.348 257.042 52.46 257.042 52.588C257.042 52.684 257.026 52.772 256.994 52.852L255.122 57.628C254.946 58.076 254.65 58.3 254.234 58.3H252.482ZM272.359 56.5C272.183 56.5 272.031 56.444 271.903 56.332C271.791 56.22 271.735 56.076 271.735 55.9V52.324C271.015 52.9 269.943 53.188 268.519 53.188C266.967 53.188 265.791 52.796 264.991 52.012C264.207 51.212 263.815 49.964 263.815 48.268V44.62C263.815 44.444 263.871 44.3 263.983 44.188C264.111 44.076 264.255 44.02 264.415 44.02H267.535C267.711 44.02 267.855 44.076 267.967 44.188C268.079 44.3 268.135 44.444 268.135 44.62V48.052C268.135 48.596 268.263 48.98 268.519 49.204C268.775 49.428 269.207 49.54 269.815 49.54C270.407 49.54 270.871 49.452 271.207 49.276C271.559 49.084 271.735 48.812 271.735 48.46V44.62C271.735 44.444 271.791 44.3 271.903 44.188C272.031 44.076 272.183 44.02 272.359 44.02H275.599C275.775 44.02 275.919 44.076 276.031 44.188C276.159 44.3 276.223 44.444 276.223 44.62V55.9C276.223 56.076 276.159 56.22 276.031 56.332C275.919 56.444 275.775 56.5 275.599 56.5H272.359ZM282.855 56.5C282.679 56.5 282.527 56.444 282.399 56.332C282.287 56.22 282.231 56.076 282.231 55.9V47.284H278.655C278.479 47.284 278.327 47.228 278.199 47.116C278.087 47.004 278.031 46.86 278.031 46.684V44.62C278.031 44.444 278.087 44.3 278.199 44.188C278.327 44.076 278.479 44.02 278.655 44.02H289.983C290.159 44.02 290.303 44.076 290.415 44.188C290.527 44.3 290.583 44.444 290.583 44.62V46.684C290.583 46.844 290.527 46.988 290.415 47.116C290.303 47.228 290.159 47.284 289.983 47.284H286.383V55.9C286.383 56.06 286.327 56.204 286.215 56.332C286.103 56.444 285.959 56.5 285.783 56.5H282.855ZM298.306 56.74C296.29 56.74 294.738 56.276 293.65 55.348C292.578 54.404 291.994 53.068 291.898 51.34C291.882 51.132 291.874 50.772 291.874 50.26C291.874 49.748 291.882 49.388 291.898 49.18C291.994 47.484 292.594 46.164 293.698 45.22C294.818 44.26 296.354 43.78 298.306 43.78C300.258 43.78 301.786 44.26 302.89 45.22C304.01 46.164 304.618 47.484 304.714 49.18C304.746 49.596 304.762 49.956 304.762 50.26C304.762 50.564 304.746 50.924 304.714 51.34C304.618 53.068 304.026 54.404 302.938 55.348C301.866 56.276 300.322 56.74 298.306 56.74ZM298.306 53.716C298.962 53.716 299.45 53.516 299.77 53.116C300.09 52.7 300.274 52.068 300.322 51.22C300.338 51.06 300.346 50.74 300.346 50.26C300.346 49.78 300.338 49.46 300.322 49.3C300.274 48.468 300.09 47.844 299.77 47.428C299.45 47.012 298.962 46.804 298.306 46.804C297.65 46.804 297.162 47.012 296.842 47.428C296.522 47.844 296.338 48.468 296.29 49.3L296.266 50.26L296.29 51.22C296.338 52.068 296.522 52.7 296.842 53.116C297.162 53.516 297.65 53.716 298.306 53.716ZM312.687 56.5C312.527 56.5 312.383 56.444 312.255 56.332C312.143 56.204 312.087 56.06 312.087 55.9V44.62C312.087 44.444 312.143 44.3 312.255 44.188C312.383 44.076 312.527 44.02 312.687 44.02H318.375C320.247 44.02 321.639 44.332 322.551 44.956C323.479 45.58 323.943 46.46 323.943 47.596C323.943 48.156 323.831 48.636 323.607 49.036C323.383 49.42 323.063 49.756 322.647 50.044C323.175 50.316 323.583 50.692 323.871 51.172C324.175 51.636 324.327 52.18 324.327 52.804C324.327 53.972 323.863 54.884 322.935 55.54C322.007 56.18 320.607 56.5 318.735 56.5H312.687ZM318.471 48.868C319.495 48.868 320.007 48.484 320.007 47.716C320.007 47.332 319.871 47.068 319.599 46.924C319.343 46.764 318.967 46.684 318.471 46.684H316.167V48.868H318.471ZM318.519 53.836C319.559 53.836 320.079 53.476 320.079 52.756C320.079 52.356 319.951 52.068 319.695 51.892C319.439 51.716 319.047 51.628 318.519 51.628H316.167V53.836H318.519ZM327.335 56.5C327.175 56.5 327.031 56.444 326.903 56.332C326.791 56.204 326.735 56.06 326.735 55.9V44.62C326.735 44.444 326.791 44.3 326.903 44.188C327.031 44.076 327.175 44.02 327.335 44.02H330.359C330.535 44.02 330.679 44.076 330.791 44.188C330.903 44.3 330.959 44.444 330.959 44.62V47.836H333.119C334.719 47.836 335.967 48.228 336.863 49.012C337.775 49.78 338.231 50.844 338.231 52.204C338.231 53.596 337.767 54.66 336.839 55.396C335.927 56.132 334.647 56.5 332.999 56.5H327.335ZM340.271 56.5C340.111 56.5 339.967 56.444 339.839 56.332C339.727 56.204 339.671 56.06 339.671 55.9V44.62C339.671 44.444 339.727 44.3 339.839 44.188C339.967 44.076 340.111 44.02 340.271 44.02H343.271C343.447 44.02 343.591 44.076 343.703 44.188C343.831 44.3 343.895 44.444 343.895 44.62V55.9C343.895 56.076 343.831 56.22 343.703 56.332C343.591 56.444 343.447 56.5 343.271 56.5H340.271ZM332.759 53.644C333.351 53.644 333.783 53.532 334.055 53.308C334.327 53.084 334.463 52.716 334.463 52.204C334.463 51.692 334.327 51.308 334.055 51.052C333.783 50.796 333.351 50.668 332.759 50.668H330.887V53.644H332.759ZM357.598 56.74C355.774 56.74 354.294 56.26 353.158 55.3C352.038 54.324 351.438 52.972 351.358 51.244L351.334 50.284L351.358 49.3C351.422 47.572 352.022 46.22 353.158 45.244C354.294 44.268 355.774 43.78 357.598 43.78C358.99 43.78 360.158 44.028 361.102 44.524C362.046 45.02 362.75 45.612 363.214 46.3C363.678 46.972 363.926 47.588 363.958 48.148C363.974 48.324 363.918 48.476 363.79 48.604C363.662 48.716 363.51 48.772 363.334 48.772H360.118C359.942 48.772 359.806 48.732 359.71 48.652C359.614 48.572 359.526 48.444 359.446 48.268C359.27 47.82 359.038 47.492 358.75 47.284C358.478 47.076 358.126 46.972 357.694 46.972C356.462 46.972 355.822 47.788 355.774 49.42L355.75 50.332L355.774 51.124C355.79 51.956 355.958 52.572 356.278 52.972C356.598 53.356 357.07 53.548 357.694 53.548C358.158 53.548 358.518 53.452 358.774 53.26C359.046 53.052 359.27 52.716 359.446 52.252C359.526 52.076 359.614 51.948 359.71 51.868C359.806 51.788 359.942 51.748 360.118 51.748H363.334C363.494 51.748 363.638 51.804 363.766 51.916C363.894 52.028 363.958 52.164 363.958 52.324C363.958 52.82 363.734 53.42 363.286 54.124C362.854 54.812 362.158 55.42 361.198 55.948C360.238 56.476 359.038 56.74 357.598 56.74ZM371.656 56.5C371.496 56.5 371.352 56.444 371.224 56.332C371.112 56.204 371.056 56.06 371.056 55.9V44.62C371.056 44.444 371.112 44.3 371.224 44.188C371.352 44.076 371.496 44.02 371.656 44.02H374.656C374.832 44.02 374.976 44.076 375.088 44.188C375.216 44.3 375.28 44.444 375.28 44.62V48.532H379.36V44.62C379.36 44.444 379.416 44.3 379.528 44.188C379.656 44.076 379.808 44.02 379.984 44.02H382.984C383.16 44.02 383.304 44.076 383.416 44.188C383.528 44.3 383.584 44.444 383.584 44.62V55.9C383.584 56.06 383.528 56.204 383.416 56.332C383.304 56.444 383.16 56.5 382.984 56.5H379.984C379.808 56.5 379.656 56.444 379.528 56.332C379.416 56.22 379.36 56.076 379.36 55.9V51.796H375.28V55.9C375.28 56.076 375.216 56.22 375.088 56.332C374.976 56.444 374.832 56.5 374.656 56.5H371.656ZM390.199 56.74C389.351 56.74 388.575 56.58 387.871 56.26C387.183 55.924 386.639 55.468 386.239 54.892C385.855 54.316 385.663 53.684 385.663 52.996C385.663 51.908 386.111 51.028 387.007 50.356C387.919 49.668 389.167 49.196 390.751 48.94L393.727 48.484V48.196C393.727 47.604 393.607 47.172 393.367 46.9C393.127 46.628 392.719 46.492 392.143 46.492C391.823 46.492 391.551 46.548 391.327 46.66C391.119 46.772 390.879 46.94 390.607 47.164C390.399 47.34 390.215 47.468 390.055 47.548C389.991 47.66 389.911 47.716 389.815 47.716H387.031C386.871 47.716 386.735 47.668 386.623 47.572C386.527 47.46 386.487 47.332 386.503 47.188C386.519 46.756 386.735 46.276 387.151 45.748C387.567 45.204 388.199 44.74 389.047 44.356C389.895 43.972 390.943 43.78 392.191 43.78C394.175 43.78 395.647 44.22 396.607 45.1C397.567 45.964 398.047 47.14 398.047 48.628V55.9C398.047 56.06 397.991 56.204 397.879 56.332C397.767 56.444 397.623 56.5 397.447 56.5H394.495C394.335 56.5 394.191 56.444 394.063 56.332C393.951 56.204 393.895 56.06 393.895 55.9V55.06C393.543 55.556 393.055 55.964 392.431 56.284C391.807 56.588 391.063 56.74 390.199 56.74ZM391.398 53.908C392.103 53.908 392.671 53.676 393.103 53.212C393.551 52.748 393.775 52.076 393.775 51.196V50.908L391.783 51.244C390.439 51.5 389.767 51.98 389.767 52.684C389.767 53.052 389.919 53.348 390.223 53.572C390.543 53.796 390.935 53.908 391.398 53.908ZM414.793 44.02C414.921 44.02 415.033 44.068 415.129 44.164C415.225 44.26 415.273 44.372 415.273 44.5V55.996C415.273 56.14 415.225 56.26 415.129 56.356C415.033 56.452 414.913 56.5 414.769 56.5H411.625C411.481 56.5 411.361 56.452 411.265 56.356C411.169 56.26 411.121 56.14 411.121 55.996V50.692L409.153 54.124C409.057 54.3 408.953 54.436 408.841 54.532C408.745 54.612 408.617 54.652 408.457 54.652H407.473C407.185 54.652 406.945 54.476 406.753 54.124L404.785 50.716V55.996C404.785 56.14 404.737 56.26 404.641 56.356C404.545 56.452 404.433 56.5 404.305 56.5H401.161C401.017 56.5 400.897 56.452 400.801 56.356C400.705 56.26 400.657 56.14 400.657 55.996V44.5C400.657 44.372 400.705 44.26 400.801 44.164C400.897 44.068 401.009 44.02 401.137 44.02H404.065C404.353 44.02 404.585 44.164 404.761 44.452L407.953 50.116L411.169 44.452C411.345 44.164 411.577 44.02 411.865 44.02H414.793ZM430.382 44.02C430.542 44.02 430.678 44.076 430.79 44.188C430.918 44.3 430.982 44.436 430.982 44.596V55.9C430.982 56.06 430.926 56.204 430.814 56.332C430.702 56.444 430.558 56.5 430.382 56.5H427.382C427.206 56.5 427.054 56.444 426.926 56.332C426.814 56.22 426.758 56.076 426.758 55.9V49.396L422.078 56.116C421.902 56.372 421.678 56.5 421.406 56.5H418.718C418.558 56.5 418.414 56.444 418.286 56.332C418.174 56.204 418.118 56.06 418.118 55.9V44.62C418.118 44.444 418.174 44.3 418.286 44.188C418.414 44.076 418.558 44.02 418.718 44.02H421.718C421.894 44.02 422.038 44.076 422.15 44.188C422.278 44.3 422.342 44.444 422.342 44.62V51.124L427.022 44.404C427.198 44.148 427.422 44.02 427.694 44.02H430.382ZM433.997 56.5C433.821 56.5 433.669 56.444 433.541 56.332C433.429 56.22 433.373 56.076 433.373 55.9V52.732C433.373 52.556 433.429 52.412 433.541 52.3C433.669 52.172 433.821 52.108 433.997 52.108H437.165C437.341 52.108 437.485 52.172 437.597 52.3C437.709 52.412 437.765 52.556 437.765 52.732V55.9C437.765 56.06 437.709 56.204 437.597 56.332C437.485 56.444 437.341 56.5 437.165 56.5H433.997ZM452.647 56.74C450.359 56.74 448.559 56.188 447.247 55.084C445.951 53.98 445.263 52.364 445.183 50.236C445.167 49.804 445.159 49.1 445.159 48.124C445.159 47.132 445.167 46.412 445.183 45.964C445.263 43.884 445.959 42.284 447.271 41.164C448.599 40.028 450.391 39.46 452.647 39.46C454.071 39.46 455.343 39.692 456.463 40.156C457.599 40.62 458.495 41.292 459.151 42.172C459.807 43.052 460.151 44.092 460.183 45.292C460.183 45.436 460.127 45.556 460.015 45.652C459.919 45.748 459.799 45.796 459.655 45.796H456.247C456.023 45.796 455.855 45.756 455.743 45.676C455.647 45.58 455.559 45.412 455.479 45.172C455.255 44.388 454.911 43.844 454.447 43.54C453.999 43.22 453.399 43.06 452.647 43.06C450.839 43.06 449.903 44.068 449.839 46.084C449.823 46.516 449.815 47.18 449.815 48.076C449.815 48.972 449.823 49.652 449.839 50.116C449.903 52.132 450.839 53.14 452.647 53.14C453.383 53.14 453.983 52.98 454.447 52.66C454.927 52.34 455.271 51.796 455.479 51.028C455.543 50.788 455.631 50.628 455.743 50.548C455.855 50.452 456.023 50.404 456.247 50.404H459.655C459.799 50.404 459.919 50.452 460.015 50.548C460.127 50.644 460.183 50.764 460.183 50.908C460.151 52.108 459.807 53.148 459.151 54.028C458.495 54.908 457.599 55.58 456.463 56.044C455.343 56.508 454.071 56.74 452.647 56.74ZM468.224 56.74C466.272 56.74 464.736 56.22 463.616 55.18C462.496 54.124 461.92 52.596 461.888 50.596V49.852C461.952 47.948 462.544 46.46 463.664 45.388C464.784 44.316 466.296 43.78 468.2 43.78C469.576 43.78 470.736 44.06 471.68 44.62C472.64 45.164 473.352 45.924 473.816 46.9C474.296 47.86 474.536 48.956 474.536 50.188V50.788C474.536 50.964 474.472 51.116 474.344 51.244C474.232 51.356 474.088 51.412 473.912 51.412H466.304V51.556C466.32 52.276 466.488 52.86 466.808 53.308C467.128 53.74 467.584 53.956 468.176 53.956C468.56 53.956 468.864 53.884 469.088 53.74C469.328 53.58 469.552 53.38 469.76 53.14C469.904 52.98 470.016 52.884 470.096 52.852C470.192 52.804 470.336 52.78 470.528 52.78H473.672C473.816 52.78 473.936 52.828 474.032 52.924C474.144 53.004 474.2 53.108 474.2 53.236C474.2 53.652 473.96 54.14 473.48 54.7C473.016 55.26 472.328 55.74 471.416 56.14C470.52 56.54 469.456 56.74 468.224 56.74ZM470.12 48.964V48.916C470.12 48.148 469.952 47.556 469.616 47.14C469.28 46.708 468.808 46.492 468.2 46.492C467.592 46.492 467.12 46.708 466.784 47.14C466.464 47.556 466.304 48.148 466.304 48.916V48.964H470.12ZM477.288 56.5C477.128 56.5 476.984 56.444 476.856 56.332C476.744 56.204 476.688 56.06 476.688 55.9V44.62C476.688 44.444 476.744 44.3 476.856 44.188C476.984 44.076 477.128 44.02 477.288 44.02H482.976C484.848 44.02 486.24 44.332 487.152 44.956C488.08 45.58 488.544 46.46 488.544 47.596C488.544 48.156 488.432 48.636 488.208 49.036C487.984 49.42 487.664 49.756 487.248 50.044C487.776 50.316 488.184 50.692 488.472 51.172C488.776 51.636 488.928 52.18 488.928 52.804C488.928 53.972 488.464 54.884 487.536 55.54C486.608 56.18 485.208 56.5 483.336 56.5H477.288ZM483.072 48.868C484.096 48.868 484.608 48.484 484.608 47.716C484.608 47.332 484.472 47.068 484.2 46.924C483.944 46.764 483.568 46.684 483.072 46.684H480.768V48.868H483.072ZM483.12 53.836C484.16 53.836 484.68 53.476 484.68 52.756C484.68 52.356 484.552 52.068 484.296 51.892C484.04 51.716 483.648 51.628 483.12 51.628H480.768V53.836H483.12ZM497.193 56.74C495.241 56.74 493.705 56.22 492.585 55.18C491.465 54.124 490.889 52.596 490.857 50.596V49.852C490.921 47.948 491.513 46.46 492.633 45.388C493.753 44.316 495.265 43.78 497.169 43.78C498.545 43.78 499.705 44.06 500.649 44.62C501.609 45.164 502.321 45.924 502.785 46.9C503.265 47.86 503.505 48.956 503.505 50.188V50.788C503.505 50.964 503.441 51.116 503.313 51.244C503.201 51.356 503.057 51.412 502.881 51.412H495.273V51.556C495.289 52.276 495.457 52.86 495.777 53.308C496.097 53.74 496.553 53.956 497.145 53.956C497.529 53.956 497.833 53.884 498.057 53.74C498.297 53.58 498.521 53.38 498.729 53.14C498.873 52.98 498.985 52.884 499.065 52.852C499.161 52.804 499.305 52.78 499.497 52.78H502.641C502.785 52.78 502.905 52.828 503.001 52.924C503.113 53.004 503.169 53.108 503.169 53.236C503.169 53.652 502.929 54.14 502.449 54.7C501.985 55.26 501.297 55.74 500.385 56.14C499.489 56.54 498.425 56.74 497.193 56.74ZM499.089 48.964V48.916C499.089 48.148 498.921 47.556 498.585 47.14C498.249 46.708 497.777 46.492 497.169 46.492C496.561 46.492 496.089 46.708 495.753 47.14C495.433 47.556 495.273 48.148 495.273 48.916V48.964H499.089ZM506.281 61.06C506.105 61.06 505.953 61.004 505.825 60.892C505.713 60.78 505.657 60.636 505.657 60.46V44.62C505.657 44.444 505.713 44.3 505.825 44.188C505.953 44.076 506.105 44.02 506.281 44.02H509.137C509.313 44.02 509.457 44.076 509.569 44.188C509.681 44.3 509.737 44.444 509.737 44.62V45.484C510.601 44.348 511.841 43.78 513.457 43.78C515.009 43.78 516.225 44.268 517.105 45.244C518.001 46.204 518.481 47.58 518.545 49.372C518.561 49.58 518.569 49.876 518.569 50.26C518.569 50.644 518.561 50.948 518.545 51.172C518.481 52.9 518.001 54.26 517.105 55.252C516.209 56.244 514.993 56.74 513.457 56.74C511.905 56.74 510.745 56.212 509.977 55.156V60.46C509.977 60.636 509.921 60.78 509.809 60.892C509.697 61.004 509.553 61.06 509.377 61.06H506.281ZM512.065 53.404C512.785 53.404 513.297 53.196 513.601 52.78C513.921 52.348 514.105 51.756 514.153 51.004C514.169 50.844 514.177 50.596 514.177 50.26C514.177 49.924 514.169 49.676 514.153 49.516C514.105 48.764 513.921 48.18 513.601 47.764C513.297 47.332 512.785 47.116 512.065 47.116C511.377 47.116 510.865 47.34 510.529 47.788C510.193 48.22 510.009 48.772 509.977 49.444C509.961 49.652 509.953 49.956 509.953 50.356C509.953 50.74 509.961 51.036 509.977 51.244C510.009 51.868 510.193 52.388 510.529 52.804C510.881 53.204 511.393 53.404 512.065 53.404ZM532.052 44.02C532.228 44.02 532.372 44.076 532.484 44.188C532.596 44.3 532.652 44.444 532.652 44.62V55.9C532.652 56.06 532.596 56.204 532.484 56.332C532.372 56.444 532.228 56.5 532.052 56.5H528.956C528.78 56.5 528.628 56.444 528.5 56.332C528.388 56.22 528.332 56.076 528.332 55.9V52.54H526.7L524.756 56.14C524.644 56.38 524.46 56.5 524.204 56.5H521.18C521.02 56.5 520.892 56.452 520.796 56.356C520.7 56.26 520.652 56.148 520.652 56.02C520.652 55.892 520.692 55.78 520.772 55.684L523.148 51.748C522.476 51.396 521.964 50.924 521.612 50.332C521.26 49.74 521.084 49.044 521.084 48.244C521.084 46.884 521.532 45.844 522.428 45.124C523.34 44.388 524.604 44.02 526.22 44.02H532.052ZM528.428 46.876H526.46C525.9 46.876 525.484 46.988 525.212 47.212C524.956 47.42 524.828 47.764 524.828 48.244C524.828 48.692 524.956 49.044 525.212 49.3C525.484 49.556 525.876 49.684 526.388 49.684H528.428V46.876ZM536.116 56.5C535.956 56.5 535.812 56.444 535.684 56.332C535.572 56.204 535.516 56.06 535.516 55.9V44.62C535.516 44.444 535.572 44.3 535.684 44.188C535.812 44.076 535.956 44.02 536.116 44.02H539.116C539.292 44.02 539.436 44.076 539.548 44.188C539.676 44.3 539.74 44.444 539.74 44.62V48.532H543.82V44.62C543.82 44.444 543.876 44.3 543.988 44.188C544.116 44.076 544.268 44.02 544.444 44.02H547.444C547.62 44.02 547.764 44.076 547.876 44.188C547.988 44.3 548.044 44.444 548.044 44.62V55.9C548.044 56.06 547.988 56.204 547.876 56.332C547.764 56.444 547.62 56.5 547.444 56.5H544.444C544.268 56.5 544.116 56.444 543.988 56.332C543.876 56.22 543.82 56.076 543.82 55.9V51.796H539.74V55.9C539.74 56.076 539.676 56.22 539.548 56.332C539.436 56.444 539.292 56.5 539.116 56.5H536.116ZM556.891 56.74C554.875 56.74 553.323 56.276 552.235 55.348C551.163 54.404 550.579 53.068 550.483 51.34C550.467 51.132 550.459 50.772 550.459 50.26C550.459 49.748 550.467 49.388 550.483 49.18C550.579 47.484 551.179 46.164 552.283 45.22C553.403 44.26 554.939 43.78 556.891 43.78C558.843 43.78 560.371 44.26 561.475 45.22C562.595 46.164 563.203 47.484 563.299 49.18C563.331 49.596 563.347 49.956 563.347 50.26C563.347 50.564 563.331 50.924 563.299 51.34C563.203 53.068 562.611 54.404 561.523 55.348C560.451 56.276 558.907 56.74 556.891 56.74ZM556.891 53.716C557.547 53.716 558.035 53.516 558.355 53.116C558.675 52.7 558.859 52.068 558.907 51.22C558.923 51.06 558.931 50.74 558.931 50.26C558.931 49.78 558.923 49.46 558.907 49.3C558.859 48.468 558.675 47.844 558.355 47.428C558.035 47.012 557.547 46.804 556.891 46.804C556.235 46.804 555.747 47.012 555.427 47.428C555.107 47.844 554.923 48.468 554.875 49.3L554.851 50.26L554.875 51.22C554.923 52.068 555.107 52.7 555.427 53.116C555.747 53.516 556.235 53.716 556.891 53.716ZM573.578 56.5C573.402 56.5 573.25 56.444 573.122 56.332C573.01 56.22 572.954 56.076 572.954 55.9V52.324C572.234 52.9 571.162 53.188 569.738 53.188C568.186 53.188 567.01 52.796 566.21 52.012C565.426 51.212 565.034 49.964 565.034 48.268V44.62C565.034 44.444 565.09 44.3 565.202 44.188C565.33 44.076 565.474 44.02 565.634 44.02H568.754C568.93 44.02 569.074 44.076 569.186 44.188C569.298 44.3 569.354 44.444 569.354 44.62V48.052C569.354 48.596 569.482 48.98 569.738 49.204C569.994 49.428 570.426 49.54 571.034 49.54C571.626 49.54 572.09 49.452 572.426 49.276C572.778 49.084 572.954 48.812 572.954 48.46V44.62C572.954 44.444 573.01 44.3 573.122 44.188C573.25 44.076 573.402 44.02 573.578 44.02H576.818C576.994 44.02 577.138 44.076 577.25 44.188C577.378 44.3 577.442 44.444 577.442 44.62V55.9C577.442 56.076 577.378 56.22 577.25 56.332C577.138 56.444 576.994 56.5 576.818 56.5H573.578ZM593.074 55.684C593.138 55.764 593.17 55.868 593.17 55.996C593.17 56.14 593.122 56.26 593.026 56.356C592.93 56.452 592.802 56.5 592.642 56.5H589.066C588.778 56.5 588.546 56.372 588.37 56.116L585.634 51.82H584.434V55.9C584.434 56.06 584.378 56.204 584.266 56.332C584.154 56.444 584.01 56.5 583.834 56.5H580.882C580.722 56.5 580.578 56.444 580.45 56.332C580.338 56.204 580.282 56.06 580.282 55.9V44.62C580.282 44.444 580.338 44.3 580.45 44.188C580.578 44.076 580.722 44.02 580.882 44.02H583.834C584.01 44.02 584.154 44.076 584.266 44.188C584.378 44.3 584.434 44.444 584.434 44.62V48.532H585.682L588.202 44.404C588.378 44.148 588.602 44.02 588.874 44.02H592.09C592.25 44.02 592.378 44.068 592.474 44.164C592.586 44.26 592.642 44.38 592.642 44.524C592.642 44.588 592.602 44.7 592.522 44.86L589.282 50.092L593.074 55.684ZM598.769 56.74C597.921 56.74 597.145 56.58 596.441 56.26C595.753 55.924 595.209 55.468 594.809 54.892C594.425 54.316 594.233 53.684 594.233 52.996C594.233 51.908 594.681 51.028 595.577 50.356C596.489 49.668 597.737 49.196 599.321 48.94L602.297 48.484V48.196C602.297 47.604 602.177 47.172 601.937 46.9C601.697 46.628 601.289 46.492 600.713 46.492C600.393 46.492 600.121 46.548 599.897 46.66C599.689 46.772 599.449 46.94 599.177 47.164C598.969 47.34 598.785 47.468 598.625 47.548C598.561 47.66 598.481 47.716 598.385 47.716H595.601C595.441 47.716 595.305 47.668 595.193 47.572C595.097 47.46 595.057 47.332 595.073 47.188C595.089 46.756 595.305 46.276 595.721 45.748C596.137 45.204 596.769 44.74 597.617 44.356C598.465 43.972 599.513 43.78 600.761 43.78C602.745 43.78 604.217 44.22 605.177 45.1C606.137 45.964 606.617 47.14 606.617 48.628V55.9C606.617 56.06 606.561 56.204 606.449 56.332C606.337 56.444 606.193 56.5 606.017 56.5H603.065C602.905 56.5 602.761 56.444 602.633 56.332C602.521 56.204 602.465 56.06 602.465 55.9V55.06C602.113 55.556 601.625 55.964 601.001 56.284C600.377 56.588 599.633 56.74 598.769 56.74ZM599.969 53.908C600.673 53.908 601.241 53.676 601.673 53.212C602.121 52.748 602.345 52.076 602.345 51.196V50.908L600.353 51.244C599.009 51.5 598.337 51.98 598.337 52.684C598.337 53.052 598.489 53.348 598.793 53.572C599.113 53.796 599.505 53.908 599.969 53.908ZM609.083 58.3C608.939 58.3 608.819 58.244 608.723 58.132C608.643 58.036 608.611 57.916 608.627 57.772L609.371 52.948C609.403 52.724 609.491 52.532 609.635 52.372C609.779 52.196 609.987 52.108 610.259 52.108H613.163C613.291 52.108 613.403 52.156 613.499 52.252C613.595 52.348 613.643 52.46 613.643 52.588C613.643 52.684 613.627 52.772 613.595 52.852L611.723 57.628C611.547 58.076 611.251 58.3 610.835 58.3H609.083ZM621.616 56.5C621.456 56.5 621.312 56.444 621.184 56.332C621.072 56.204 621.016 56.06 621.016 55.9V44.62C621.016 44.444 621.072 44.3 621.184 44.188C621.312 44.076 621.456 44.02 621.616 44.02H627.304C629.176 44.02 630.568 44.332 631.48 44.956C632.408 45.58 632.872 46.46 632.872 47.596C632.872 48.156 632.76 48.636 632.536 49.036C632.312 49.42 631.992 49.756 631.576 50.044C632.104 50.316 632.512 50.692 632.8 51.172C633.104 51.636 633.256 52.18 633.256 52.804C633.256 53.972 632.792 54.884 631.864 55.54C630.936 56.18 629.536 56.5 627.664 56.5H621.616ZM627.4 48.868C628.424 48.868 628.936 48.484 628.936 47.716C628.936 47.332 628.8 47.068 628.528 46.924C628.272 46.764 627.896 46.684 627.4 46.684H625.096V48.868H627.4ZM627.448 53.836C628.488 53.836 629.008 53.476 629.008 52.756C629.008 52.356 628.88 52.068 628.624 51.892C628.368 51.716 627.976 51.628 627.448 51.628H625.096V53.836H627.448ZM641.521 56.74C639.569 56.74 638.033 56.22 636.913 55.18C635.793 54.124 635.217 52.596 635.185 50.596V49.852C635.249 47.948 635.841 46.46 636.961 45.388C638.081 44.316 639.593 43.78 641.497 43.78C642.873 43.78 644.033 44.06 644.977 44.62C645.937 45.164 646.649 45.924 647.113 46.9C647.593 47.86 647.833 48.956 647.833 50.188V50.788C647.833 50.964 647.769 51.116 647.641 51.244C647.529 51.356 647.385 51.412 647.209 51.412H639.601V51.556C639.617 52.276 639.785 52.86 640.105 53.308C640.425 53.74 640.881 53.956 641.473 53.956C641.857 53.956 642.161 53.884 642.385 53.74C642.625 53.58 642.849 53.38 643.057 53.14C643.201 52.98 643.313 52.884 643.393 52.852C643.489 52.804 643.633 52.78 643.825 52.78H646.969C647.113 52.78 647.233 52.828 647.329 52.924C647.441 53.004 647.497 53.108 647.497 53.236C647.497 53.652 647.257 54.14 646.777 54.7C646.313 55.26 645.625 55.74 644.713 56.14C643.817 56.54 642.753 56.74 641.521 56.74ZM643.417 48.964V48.916C643.417 48.148 643.249 47.556 642.913 47.14C642.577 46.708 642.105 46.492 641.497 46.492C640.889 46.492 640.417 46.708 640.081 47.14C639.761 47.556 639.601 48.148 639.601 48.916V48.964H643.417ZM655.313 56.74C653.921 56.74 652.801 56.548 651.953 56.164C651.105 55.764 650.489 55.292 650.105 54.748C649.737 54.188 649.521 53.628 649.457 53.068V53.02C649.457 52.924 649.505 52.836 649.601 52.756C649.697 52.676 649.793 52.636 649.889 52.636H652.817C652.993 52.636 653.121 52.668 653.201 52.732C653.297 52.78 653.385 52.868 653.465 52.996C653.593 53.284 653.809 53.5 654.113 53.644C654.417 53.772 654.833 53.836 655.361 53.836C655.905 53.836 656.321 53.74 656.609 53.548C656.913 53.34 657.065 53.028 657.065 52.612C657.065 52.228 656.945 51.94 656.705 51.748C656.481 51.54 656.097 51.436 655.553 51.436H654.209C654.065 51.436 653.937 51.388 653.825 51.292C653.729 51.18 653.681 51.052 653.681 50.908V49.468C653.681 49.324 653.729 49.204 653.825 49.108C653.921 48.996 654.049 48.94 654.209 48.94H655.481C655.961 48.94 656.305 48.86 656.513 48.7C656.737 48.524 656.849 48.26 656.849 47.908C656.849 47.556 656.721 47.268 656.465 47.044C656.209 46.82 655.809 46.708 655.265 46.708C654.737 46.708 654.345 46.78 654.089 46.924C653.849 47.068 653.649 47.308 653.489 47.644C653.409 47.772 653.321 47.868 653.225 47.932C653.145 47.98 653.017 48.004 652.841 48.004H650.009C649.881 48.004 649.769 47.964 649.673 47.884C649.593 47.788 649.561 47.684 649.577 47.572C649.641 46.964 649.865 46.372 650.249 45.796C650.633 45.22 651.241 44.74 652.073 44.356C652.905 43.972 653.985 43.78 655.313 43.78C657.249 43.78 658.665 44.108 659.561 44.764C660.457 45.42 660.905 46.276 660.905 47.332C660.905 48.564 660.385 49.428 659.345 49.924C660.593 50.372 661.233 51.388 661.265 52.972C661.265 54.124 660.729 55.044 659.657 55.732C658.601 56.404 657.153 56.74 655.313 56.74ZM669.365 56.74C667.413 56.74 665.877 56.22 664.757 55.18C663.637 54.124 663.061 52.596 663.029 50.596V49.852C663.093 47.948 663.685 46.46 664.805 45.388C665.925 44.316 667.437 43.78 669.341 43.78C670.717 43.78 671.877 44.06 672.821 44.62C673.781 45.164 674.493 45.924 674.957 46.9C675.437 47.86 675.677 48.956 675.677 50.188V50.788C675.677 50.964 675.613 51.116 675.485 51.244C675.373 51.356 675.229 51.412 675.053 51.412H667.445V51.556C667.461 52.276 667.629 52.86 667.949 53.308C668.269 53.74 668.725 53.956 669.317 53.956C669.701 53.956 670.005 53.884 670.229 53.74C670.469 53.58 670.693 53.38 670.901 53.14C671.045 52.98 671.157 52.884 671.237 52.852C671.333 52.804 671.477 52.78 671.669 52.78H674.813C674.957 52.78 675.077 52.828 675.173 52.924C675.285 53.004 675.341 53.108 675.341 53.236C675.341 53.652 675.101 54.14 674.621 54.7C674.157 55.26 673.469 55.74 672.557 56.14C671.661 56.54 670.597 56.74 669.365 56.74ZM671.261 48.964V48.916C671.261 48.148 671.093 47.556 670.757 47.14C670.421 46.708 669.949 46.492 669.341 46.492C668.733 46.492 668.261 46.708 667.925 47.14C667.605 47.556 667.445 48.148 667.445 48.916V48.964H671.261ZM681.621 56.5C681.445 56.5 681.293 56.444 681.165 56.332C681.053 56.22 680.997 56.076 680.997 55.9V47.284H677.421C677.245 47.284 677.093 47.228 676.965 47.116C676.853 47.004 676.797 46.86 676.797 46.684V44.62C676.797 44.444 676.853 44.3 676.965 44.188C677.093 44.076 677.245 44.02 677.421 44.02H688.749C688.925 44.02 689.069 44.076 689.181 44.188C689.293 44.3 689.349 44.444 689.349 44.62V46.684C689.349 46.844 689.293 46.988 689.181 47.116C689.069 47.228 688.925 47.284 688.749 47.284H685.149V55.9C685.149 56.06 685.093 56.204 684.981 56.332C684.869 56.444 684.725 56.5 684.549 56.5H681.621ZM696.71 56.5C696.55 56.5 696.406 56.444 696.278 56.332C696.166 56.204 696.11 56.06 696.11 55.9V44.62C696.11 44.444 696.166 44.3 696.278 44.188C696.406 44.076 696.55 44.02 696.71 44.02H702.398C704.27 44.02 705.662 44.332 706.574 44.956C707.502 45.58 707.966 46.46 707.966 47.596C707.966 48.156 707.854 48.636 707.63 49.036C707.406 49.42 707.086 49.756 706.67 50.044C707.198 50.316 707.606 50.692 707.894 51.172C708.198 51.636 708.35 52.18 708.35 52.804C708.35 53.972 707.886 54.884 706.958 55.54C706.03 56.18 704.63 56.5 702.758 56.5H696.71ZM702.494 48.868C703.518 48.868 704.03 48.484 704.03 47.716C704.03 47.332 703.894 47.068 703.622 46.924C703.366 46.764 702.99 46.684 702.494 46.684H700.19V48.868H702.494ZM702.542 53.836C703.582 53.836 704.102 53.476 704.102 52.756C704.102 52.356 703.974 52.068 703.718 51.892C703.462 51.716 703.07 51.628 702.542 51.628H700.19V53.836H702.542ZM716.567 56.74C714.743 56.74 713.263 56.26 712.127 55.3C711.007 54.324 710.407 52.972 710.327 51.244L710.303 50.284L710.327 49.3C710.391 47.572 710.991 46.22 712.127 45.244C713.263 44.268 714.743 43.78 716.567 43.78C717.959 43.78 719.127 44.028 720.071 44.524C721.015 45.02 721.719 45.612 722.183 46.3C722.647 46.972 722.895 47.588 722.927 48.148C722.943 48.324 722.887 48.476 722.759 48.604C722.631 48.716 722.479 48.772 722.303 48.772H719.087C718.911 48.772 718.775 48.732 718.679 48.652C718.583 48.572 718.495 48.444 718.415 48.268C718.239 47.82 718.007 47.492 717.719 47.284C717.447 47.076 717.095 46.972 716.663 46.972C715.431 46.972 714.791 47.788 714.743 49.42L714.719 50.332L714.743 51.124C714.759 51.956 714.927 52.572 715.247 52.972C715.567 53.356 716.039 53.548 716.663 53.548C717.127 53.548 717.487 53.452 717.743 53.26C718.015 53.052 718.239 52.716 718.415 52.252C718.495 52.076 718.583 51.948 718.679 51.868C718.775 51.788 718.911 51.748 719.087 51.748H722.303C722.463 51.748 722.607 51.804 722.735 51.916C722.863 52.028 722.927 52.164 722.927 52.324C722.927 52.82 722.703 53.42 722.255 54.124C721.823 54.812 721.127 55.42 720.167 55.948C719.207 56.476 718.007 56.74 716.567 56.74ZM730.841 56.74C728.889 56.74 727.353 56.22 726.233 55.18C725.113 54.124 724.537 52.596 724.505 50.596V49.852C724.569 47.948 725.161 46.46 726.281 45.388C727.401 44.316 728.913 43.78 730.817 43.78C732.193 43.78 733.353 44.06 734.297 44.62C735.257 45.164 735.969 45.924 736.433 46.9C736.913 47.86 737.153 48.956 737.153 50.188V50.788C737.153 50.964 737.089 51.116 736.961 51.244C736.849 51.356 736.705 51.412 736.529 51.412H728.921V51.556C728.937 52.276 729.105 52.86 729.425 53.308C729.745 53.74 730.201 53.956 730.793 53.956C731.177 53.956 731.481 53.884 731.705 53.74C731.945 53.58 732.169 53.38 732.377 53.14C732.521 52.98 732.633 52.884 732.713 52.852C732.809 52.804 732.953 52.78 733.145 52.78H736.289C736.433 52.78 736.553 52.828 736.649 52.924C736.761 53.004 736.817 53.108 736.817 53.236C736.817 53.652 736.577 54.14 736.097 54.7C735.633 55.26 734.945 55.74 734.033 56.14C733.137 56.54 732.073 56.74 730.841 56.74ZM732.737 48.964V48.916C732.737 48.148 732.569 47.556 732.233 47.14C731.897 46.708 731.425 46.492 730.817 46.492C730.209 46.492 729.737 46.708 729.401 47.14C729.081 47.556 728.921 48.148 728.921 48.916V48.964H732.737ZM739.906 56.5C739.746 56.5 739.602 56.444 739.474 56.332C739.362 56.204 739.306 56.06 739.306 55.9V44.62C739.306 44.444 739.362 44.3 739.474 44.188C739.602 44.076 739.746 44.02 739.906 44.02H748.018C748.194 44.02 748.338 44.076 748.45 44.188C748.562 44.3 748.618 44.444 748.618 44.62V46.684C748.618 46.844 748.562 46.988 748.45 47.116C748.338 47.228 748.194 47.284 748.018 47.284H743.53V55.9C743.53 56.076 743.466 56.22 743.338 56.332C743.226 56.444 743.082 56.5 742.906 56.5H739.906ZM750.199 59.14C750.023 59.14 749.871 59.084 749.743 58.972C749.631 58.86 749.575 58.716 749.575 58.54V53.836C749.575 53.66 749.631 53.516 749.743 53.404C749.871 53.292 750.023 53.236 750.199 53.236H750.439C751.015 53.236 751.415 52.82 751.639 51.988C751.863 51.14 751.975 49.828 751.975 48.052V44.62C751.975 44.444 752.031 44.3 752.143 44.188C752.271 44.076 752.423 44.02 752.599 44.02H762.199C762.375 44.02 762.519 44.076 762.631 44.188C762.743 44.3 762.799 44.444 762.799 44.62V53.212H763.807C763.983 53.212 764.127 53.276 764.239 53.404C764.367 53.516 764.431 53.66 764.431 53.836V58.54C764.431 58.716 764.367 58.86 764.239 58.972C764.127 59.084 763.983 59.14 763.807 59.14H760.807C760.647 59.14 760.503 59.084 760.375 58.972C760.263 58.86 760.207 58.716 760.207 58.54V56.5H753.799V58.54C753.799 58.716 753.743 58.86 753.631 58.972C753.519 59.084 753.375 59.14 753.199 59.14H750.199ZM758.575 53.212V47.284H755.983V48.508C755.983 50.716 755.711 52.292 755.167 53.236L758.575 53.212ZM770.027 56.74C769.179 56.74 768.403 56.58 767.699 56.26C767.011 55.924 766.467 55.468 766.067 54.892C765.683 54.316 765.491 53.684 765.491 52.996C765.491 51.908 765.939 51.028 766.835 50.356C767.747 49.668 768.995 49.196 770.579 48.94L773.555 48.484V48.196C773.555 47.604 773.435 47.172 773.195 46.9C772.955 46.628 772.547 46.492 771.971 46.492C771.651 46.492 771.379 46.548 771.155 46.66C770.947 46.772 770.707 46.94 770.435 47.164C770.227 47.34 770.043 47.468 769.883 47.548C769.819 47.66 769.739 47.716 769.643 47.716H766.859C766.699 47.716 766.563 47.668 766.451 47.572C766.355 47.46 766.315 47.332 766.331 47.188C766.347 46.756 766.563 46.276 766.979 45.748C767.395 45.204 768.027 44.74 768.875 44.356C769.723 43.972 770.771 43.78 772.019 43.78C774.003 43.78 775.475 44.22 776.435 45.1C777.395 45.964 777.875 47.14 777.875 48.628V55.9C777.875 56.06 777.819 56.204 777.707 56.332C777.595 56.444 777.451 56.5 777.275 56.5H774.323C774.163 56.5 774.019 56.444 773.891 56.332C773.779 56.204 773.723 56.06 773.723 55.9V55.06C773.371 55.556 772.883 55.964 772.259 56.284C771.635 56.588 770.891 56.74 770.027 56.74ZM771.227 53.908C771.931 53.908 772.499 53.676 772.931 53.212C773.379 52.748 773.603 52.076 773.603 51.196V50.908L771.611 51.244C770.267 51.5 769.595 51.98 769.595 52.684C769.595 53.052 769.747 53.348 770.051 53.572C770.371 53.796 770.763 53.908 771.227 53.908ZM781.205 51.076C781.029 51.076 780.877 51.02 780.749 50.908C780.637 50.78 780.581 50.628 780.581 50.452V40.3C780.581 40.124 780.637 39.98 780.749 39.868C780.877 39.756 781.029 39.7 781.205 39.7H784.109C784.285 39.7 784.429 39.756 784.541 39.868C784.669 39.98 784.733 40.124 784.733 40.3V50.452C784.733 50.628 784.669 50.78 784.541 50.908C784.429 51.02 784.285 51.076 784.109 51.076H781.205ZM781.109 56.5C780.949 56.5 780.805 56.444 780.677 56.332C780.565 56.204 780.509 56.06 780.509 55.9V52.804C780.509 52.628 780.565 52.484 780.677 52.372C780.805 52.244 780.949 52.18 781.109 52.18H784.205C784.365 52.18 784.501 52.244 784.613 52.372C784.741 52.484 784.805 52.628 784.805 52.804V55.9C784.805 56.06 784.749 56.204 784.637 56.332C784.525 56.444 784.381 56.5 784.205 56.5H781.109Z" fill="#70C05B"/>
</svg>
